<mxfile host="app.diagrams.net" modified="2023-03-31T02:34:59.206Z" agent="Mozilla/5.0 (Macintosh; Intel Mac OS X 10_15_7) AppleWebKit/537.36 (KHTML, like Gecko) Chrome/111.0.0.0 Safari/537.36 Edg/111.0.1661.54" version="21.1.2" etag="TCM_wg95mTs8cqIzLUc-" type="github">
  <diagram name="第 1 页" id="BndNgIJzRDe3G5UoNYTP">
    <mxGraphModel>
      <root>
        <mxCell id="0" />
        <mxCell id="1" parent="0" />
      </root>
    </mxGraphModel>
  </diagram>
</mxfile>
